<svg width="47" height="30" viewBox="0 0 47 30" fill="none" xmlns="http://www.w3.org/2000/svg">
<path d="M29.7004 5.22705H17.302V24.7702H29.7004V5.22705Z" fill="#FF5F00"/>
<path d="M18.5802 15.0001C18.5786 13.1183 19.0207 11.2607 19.8728 9.56812C20.725 7.8755 21.9649 6.39212 23.4987 5.23024C21.599 3.78935 19.3175 2.89334 16.915 2.64463C14.5125 2.39592 12.086 2.80453 9.91283 3.82377C7.73961 4.84301 5.90736 6.43175 4.62548 8.40842C3.3436 10.3851 2.66382 12.6699 2.66382 15.0018C2.66382 17.3337 3.3436 19.6185 4.62548 21.5952C5.90736 23.5719 7.73961 25.1606 9.91283 26.1799C12.086 27.1991 14.5125 27.6077 16.915 27.359C19.3175 27.1103 21.599 26.2143 23.4987 24.7734C21.9644 23.6112 20.7242 22.1272 19.872 20.434C19.0199 18.7407 18.5781 16.8825 18.5802 15.0001V15.0001Z" fill="#EB001B"/>
<path d="M43.1045 22.7026V22.3021H43.2833V22.2192H42.8577V22.3021H43.0258V22.7026H43.1045ZM43.9308 22.7026V22.2192H43.802L43.6518 22.5645L43.5016 22.2192H43.3728V22.7026H43.4658V22.3366L43.6053 22.6508H43.7019L43.8414 22.3366V22.7026H43.9308Z" fill="#F79E1B"/>
<path d="M44.3351 15.0001C44.3351 17.3322 43.6551 19.6171 42.373 21.5939C41.0909 23.5706 39.2584 25.1593 37.0849 26.1784C34.9114 27.1975 32.4847 27.6059 30.082 27.3568C27.6794 27.1077 25.3979 26.2113 23.4983 24.7699C25.0316 23.607 26.2711 22.1232 27.1235 20.4305C27.9759 18.7378 28.4187 16.8804 28.4187 14.9984C28.4187 13.1164 27.9759 11.2589 27.1235 9.56621C26.2711 7.87349 25.0316 6.3897 23.4983 5.22679C25.3979 3.78545 27.6794 2.88901 30.082 2.63994C32.4847 2.39087 34.9114 2.79922 37.0849 3.81831C39.2584 4.83741 41.0909 6.42612 42.373 8.40286C43.6551 10.3796 44.3351 12.6646 44.3351 14.9966V15.0001Z" fill="#F79E1B"/>
</svg>
